# xmcd
#
# Track frame offsets: 
#        150
#        15500
#        30037
#        46725
#        62200
#        78472
#        91100
#        107075
#        120925
#        139277
#        152787
#        167625
#
# Disc length: 2462 seconds
#
# Revision: 1
# Processed by: cddbd v1.5.2PL0 Copyright (c) Steve Scherf et al.
# Submitted via: ExactAudioCopy v0.95b4
#
DISCID=84099c0c
DTITLE=Keith Whitley - Platinum and Gold Collection
DYEAR=2003
DGENRE=Country
TTITLE0=Turn Me to Love
TTITLE1=On the Other Hand
TTITLE2=When You Say Nothing at All
TTITLE3=Some Old Side Old
TTITLE4=I'm No Stranger to the Rain
TTITLE5=Brother Jukebox
TTITLE6='Til a Tear Becomes a Rose
TTITLE7=I'm Over You
TTITLE8=It Ain't Nothin'
TTITLE9=I'm Gonna Hurt Her on the Radio
TTITLE10=Brotherly Love
TTITLE11=Somebody's Doin' Me Right
EXTD=
EXTT0=
EXTT1=
EXTT2=
EXTT3=
EXTT4=
EXTT5=
EXTT6=
EXTT7=
EXTT8=
EXTT9=
EXTT10=
EXTT11=
PLAYORDER=
